<?xml version="1.0" encoding="utf-8"?>
<!-- Generator: Adobe Illustrator 24.0.3, SVG Export Plug-In . SVG Version: 6.00 Build 0)  -->
<svg version="1.1" xmlns="http://www.w3.org/2000/svg" xmlns:xlink="http://www.w3.org/1999/xlink" x="0px" y="0px"
	 viewBox="0 0 478 117" style="enable-background:new 0 0 478 117;" xml:space="preserve">
<style type="text/css">
	.st0{fill:#091140;}
	.st1{opacity:0.27;}
	.st2{fill:#2EF2DF;}
	.st3{fill:#E263F2;}
	.st4{fill:#135EF2;}
	.st5{fill:#66F2E4;}
	.st6{fill:#6AD936;}
	.st7{fill:#F22613;}
	.st8{fill:#011F26;}
	.st9{fill:#013A40;}
	.st10{fill:#50F2A7;}
	.st11{fill:#281473;}
	.st12{fill:#5FF9E6;}
	.st13{opacity:0.12;}
	.st14{opacity:0.53;}
	.st15{fill:none;stroke:#5FF9E6;stroke-width:7;stroke-linecap:square;stroke-miterlimit:10;}
	.st16{opacity:0.24;fill:#E8AADC;}
	.st17{fill:#45C9B3;}
	.st18{fill:none;stroke:#E263F2;stroke-linecap:round;stroke-linejoin:round;stroke-miterlimit:10;}
	.st19{opacity:0.24;fill:#AAD3E5;}
	.st20{opacity:0.55;}
	.st21{fill:none;stroke:#2EF2DF;stroke-linecap:round;stroke-linejoin:round;stroke-miterlimit:10;}
	.st22{fill:none;stroke:#50F2A7;stroke-miterlimit:10;}
	.st23{opacity:0.68;fill:none;stroke:#E263F2;stroke-linecap:round;stroke-linejoin:round;stroke-miterlimit:10;}
	.st24{opacity:0.7;fill:none;stroke:#45C9B3;stroke-linecap:round;stroke-linejoin:round;stroke-miterlimit:10;}
	.st25{fill:none;stroke:#4E9090;stroke-linecap:round;stroke-linejoin:round;stroke-miterlimit:10;}
	.st26{fill:#4E9090;}
	.st27{fill:#2EF2DF;stroke:#2EF2DF;stroke-miterlimit:10;}
</style>
<g id="BG">
</g>
<g id="pal">
</g>
<g id="Layer_2">
</g>
<g id="text">
	<g>
		<path class="st2" d="M158.64,76.66c-3.64,0-6.7-0.63-9.18-1.9c-2.48-1.27-4.52-2.95-6.12-5.06l4.32-4.14
			c1.6,1.92,3.3,3.33,5.1,4.23s3.84,1.35,6.12,1.35c2.64,0,4.67-0.6,6.09-1.81c1.42-1.21,2.13-2.94,2.13-5.2
			c0-1.81-0.52-3.21-1.56-4.2c-1.04-0.99-2.82-1.7-5.34-2.15l-4.56-0.72c-2-0.32-3.68-0.85-5.04-1.59c-1.36-0.74-2.46-1.62-3.3-2.64
			c-0.84-1.02-1.45-2.16-1.83-3.42c-0.38-1.26-0.57-2.59-0.57-3.99c0-3.95,1.28-6.96,3.84-9.02c2.56-2.06,6.08-3.09,10.56-3.09
			c3.32,0,6.15,0.52,8.49,1.57c2.34,1.05,4.23,2.52,5.67,4.43l-4.2,4.2c-1.16-1.4-2.53-2.53-4.11-3.39
			c-1.58-0.86-3.53-1.29-5.85-1.29c-2.48,0-4.37,0.53-5.67,1.6c-1.3,1.07-1.95,2.63-1.95,4.68c0,1.73,0.51,3.09,1.53,4.08
			c1.02,0.99,2.83,1.7,5.43,2.15l4.44,0.78c3.76,0.68,6.5,2.05,8.22,4.11c1.72,2.06,2.58,4.56,2.58,7.52c0,1.92-0.33,3.68-0.99,5.27
			c-0.66,1.6-1.64,2.96-2.94,4.08c-1.3,1.12-2.9,1.99-4.8,2.61C163.25,76.35,161.08,76.66,158.64,76.66z"/>
		<path class="st2" d="M198.36,39.7v36.24h-6.72V39.7H178.5v-5.64h33v5.64H198.36z"/>
		<path class="st2" d="M240.72,75.94l-3.18-11.22h-13.32l-3.18,11.22h-6.84l12.24-41.88h9.18l12.24,41.88H240.72z M231.12,40.84
			h-0.48l-5.16,18.36h10.8L231.12,40.84z"/>
		<path class="st2" d="M260.7,75.94h-6.66V34.06h15.66c4,0,7.05,1.12,9.15,3.35c2.1,2.23,3.15,5.31,3.15,9.22
			c0,3.19-0.78,5.83-2.34,7.9c-1.56,2.08-3.8,3.35-6.72,3.83l9.66,17.57h-7.44l-8.88-16.98h-5.58V75.94z M268.74,53.62
			c4.16,0,6.24-1.91,6.24-5.72V45.3c0-3.82-2.08-5.72-6.24-5.72h-8.04v14.04H268.74z"/>
		<path class="st2" d="M306.36,39.7v36.24h-6.72V39.7H286.5v-5.64h33v5.64H306.36z"/>
	</g>
	<polygon class="st24" points="469,5.5 469,64.5 422,111.5 9,111.5 9,52.5 56,5.5 	"/>
</g>
</svg>
