<?xml version="1.0" encoding="utf-8"?>
<!-- Generator: Adobe Illustrator 24.0.3, SVG Export Plug-In . SVG Version: 6.00 Build 0)  -->
<svg version="1.1" xmlns="http://www.w3.org/2000/svg" xmlns:xlink="http://www.w3.org/1999/xlink" x="0px" y="0px"
	 viewBox="0 0 478 117" style="enable-background:new 0 0 478 117;" xml:space="preserve">
<style type="text/css">
	.st0{fill:#091140;}
	.st1{opacity:0.27;}
	.st2{fill:#2EF2DF;}
	.st3{fill:#E263F2;}
	.st4{fill:#135EF2;}
	.st5{fill:#66F2E4;}
	.st6{fill:#6AD936;}
	.st7{fill:#F22613;}
	.st8{fill:#011F26;}
	.st9{fill:#013A40;}
	.st10{fill:#50F2A7;}
	.st11{fill:#281473;}
	.st12{fill:#5FF9E6;}
	.st13{opacity:0.12;}
	.st14{opacity:0.53;}
	.st15{fill:none;stroke:#5FF9E6;stroke-width:7;stroke-linecap:square;stroke-miterlimit:10;}
	.st16{opacity:0.24;fill:#E8AADC;}
	.st17{fill:#45C9B3;}
	.st18{fill:none;stroke:#E263F2;stroke-linecap:round;stroke-linejoin:round;stroke-miterlimit:10;}
	.st19{opacity:0.24;fill:#AAD3E5;}
	.st20{opacity:0.55;}
	.st21{fill:none;stroke:#2EF2DF;stroke-linecap:round;stroke-linejoin:round;stroke-miterlimit:10;}
	.st22{fill:none;stroke:#50F2A7;stroke-miterlimit:10;}
	.st23{opacity:0.68;fill:none;stroke:#E263F2;stroke-linecap:round;stroke-linejoin:round;stroke-miterlimit:10;}
	.st24{opacity:0.7;fill:none;stroke:#45C9B3;stroke-linecap:round;stroke-linejoin:round;stroke-miterlimit:10;}
	.st25{fill:none;stroke:#4E9090;stroke-linecap:round;stroke-linejoin:round;stroke-miterlimit:10;}
	.st26{fill:#4E9090;}
	.st27{fill:#2EF2DF;stroke:#2EF2DF;stroke-miterlimit:10;}
	.st28{opacity:0.24;}
	.st29{fill:#E8AADC;}
	.st30{opacity:0.7;}
</style>
<g id="BG">
</g>
<g id="pal">
</g>
<g id="Layer_2">
</g>
<g id="text">
	<g>
		<path class="st2" d="M194.22,82.76h-6.78c-2.4,0-4.13-0.63-5.19-1.88c-1.06-1.25-1.59-2.91-1.59-4.96v-2.01
			c-1.87-0.32-3.5-0.97-4.88-1.96c-1.38-0.99-2.52-2.29-3.42-3.9c-0.9-1.61-1.56-3.51-1.99-5.7c-0.42-2.19-0.64-4.65-0.64-7.37
			c0-3,0.26-5.7,0.79-8.08c0.53-2.38,1.35-4.39,2.46-6.02c1.11-1.62,2.53-2.87,4.24-3.74c1.71-0.87,3.74-1.3,6.07-1.3
			s4.35,0.43,6.07,1.3c1.71,0.87,3.13,2.11,4.24,3.74c1.11,1.63,1.93,3.63,2.46,6.02c0.53,2.39,0.79,5.08,0.79,8.08
			c0,5.44-0.88,9.81-2.65,13.09c-1.77,3.29-4.52,5.23-8.27,5.83v4.4h8.27V82.76z M183.3,69.19c2.65,0,4.52-1,5.62-3
			c1.09-2,1.64-4.72,1.64-8.15v-6.21c0-3.4-0.55-6.1-1.64-8.1c-1.1-2-2.97-3-5.62-3c-2.65,0-4.52,1-5.62,3c-1.1,2-1.64,4.7-1.64,8.1
			v6.27c0,3.4,0.55,6.1,1.64,8.1C178.78,68.19,180.65,69.19,183.3,69.19z"/>
		<path class="st2" d="M208.79,36.49v22.77c0,1.52,0.04,2.9,0.13,4.14c0.09,1.24,0.34,2.29,0.77,3.16c0.42,0.87,1.06,1.53,1.91,1.99
			s2.01,0.69,3.5,0.69c1.48,0,2.65-0.23,3.5-0.69c0.85-0.46,1.48-1.12,1.91-1.99c0.42-0.87,0.68-1.92,0.77-3.16
			c0.09-1.24,0.13-2.62,0.13-4.14V36.49h5.94v21.68c0,2.65-0.15,4.97-0.45,6.97c-0.3,2-0.89,3.66-1.78,4.98
			c-0.88,1.33-2.13,2.32-3.74,2.99c-1.61,0.67-3.7,1.01-6.28,1.01c-2.58,0-4.67-0.34-6.28-1.01c-1.61-0.67-2.85-1.67-3.74-2.99
			c-0.88-1.32-1.48-2.99-1.78-4.98c-0.3-2-0.45-4.32-0.45-6.97V36.49H208.79z"/>
		<path class="st2" d="M235.24,73.49v-4.5h8.69V41h-8.69v-4.51h23.32V41h-8.69v27.98h8.69v4.5H235.24z"/>
		<path class="st2" d="M281.67,41.48v32.01h-5.94V41.48h-11.61v-4.98h29.15v4.98H281.67z"/>
	</g>
	<polygon class="st24" points="469,5.5 469,64.5 422,111.5 9,111.5 9,52.5 56,5.5 	"/>
</g>
</svg>
