<?xml version="1.0" encoding="utf-8"?>
<!-- Generator: Adobe Illustrator 24.0.3, SVG Export Plug-In . SVG Version: 6.00 Build 0)  -->
<svg version="1.1" xmlns="http://www.w3.org/2000/svg" xmlns:xlink="http://www.w3.org/1999/xlink" x="0px" y="0px"
	 viewBox="0 0 478 117" style="enable-background:new 0 0 478 117;" xml:space="preserve">
<style type="text/css">
	.st0{fill:#091140;}
	.st1{opacity:0.27;}
	.st2{fill:#2EF2DF;}
	.st3{fill:#E263F2;}
	.st4{fill:#135EF2;}
	.st5{fill:#66F2E4;}
	.st6{fill:#6AD936;}
	.st7{fill:#F22613;}
	.st8{fill:#011F26;}
	.st9{fill:#013A40;}
	.st10{fill:#50F2A7;}
	.st11{fill:#281473;}
	.st12{fill:#5FF9E6;}
	.st13{opacity:0.12;}
	.st14{opacity:0.53;}
	.st15{fill:none;stroke:#5FF9E6;stroke-width:7;stroke-linecap:square;stroke-miterlimit:10;}
	.st16{opacity:0.24;fill:#E8AADC;}
	.st17{fill:#45C9B3;}
	.st18{fill:none;stroke:#E263F2;stroke-linecap:round;stroke-linejoin:round;stroke-miterlimit:10;}
	.st19{opacity:0.24;fill:#AAD3E5;}
	.st20{opacity:0.55;}
	.st21{fill:none;stroke:#2EF2DF;stroke-linecap:round;stroke-linejoin:round;stroke-miterlimit:10;}
	.st22{fill:none;stroke:#50F2A7;stroke-miterlimit:10;}
	.st23{opacity:0.68;fill:none;stroke:#E263F2;stroke-linecap:round;stroke-linejoin:round;stroke-miterlimit:10;}
	.st24{opacity:0.7;fill:none;stroke:#45C9B3;stroke-linecap:round;stroke-linejoin:round;stroke-miterlimit:10;}
	.st25{fill:none;stroke:#4E9090;stroke-linecap:round;stroke-linejoin:round;stroke-miterlimit:10;}
	.st26{fill:#4E9090;}
	.st27{fill:#2EF2DF;stroke:#2EF2DF;stroke-miterlimit:10;}
	.st28{opacity:0.24;}
	.st29{fill:#E8AADC;}
	.st30{opacity:0.7;}
</style>
<g id="BG">
</g>
<g id="pal">
</g>
<g id="Layer_2">
</g>
<g id="text">
	<g>
		<path class="st2" d="M173.12,73.49V36.49h5.94v32.01h16.85v4.98H173.12z"/>
		<path class="st2" d="M215.1,74.12c-2.33,0-4.36-0.43-6.07-1.3c-1.71-0.87-3.13-2.11-4.24-3.74c-1.11-1.62-1.93-3.62-2.46-5.99
			c-0.53-2.37-0.79-5.07-0.79-8.11c0-3,0.27-5.7,0.79-8.08c0.53-2.38,1.35-4.39,2.46-6.02c1.11-1.62,2.53-2.87,4.24-3.74
			c1.71-0.87,3.74-1.3,6.07-1.3s4.35,0.43,6.07,1.3c1.71,0.87,3.13,2.11,4.24,3.74c1.11,1.63,1.93,3.63,2.46,6.02
			c0.53,2.39,0.79,5.08,0.79,8.08c0,3.04-0.26,5.74-0.79,8.11c-0.53,2.37-1.35,4.36-2.46,5.99c-1.11,1.63-2.53,2.87-4.24,3.74
			C219.46,73.69,217.43,74.12,215.1,74.12z M215.1,69.25c2.65,0,4.52-1,5.62-3c1.09-2,1.64-4.73,1.64-8.17v-6.22
			c0-3.4-0.55-6.11-1.64-8.11c-1.1-2-2.97-3.01-5.62-3.01c-2.65,0-4.52,1-5.62,3.01c-1.1,2-1.64,4.71-1.64,8.11v6.28
			c0,3.41,0.55,6.11,1.64,8.11C210.58,68.25,212.45,69.25,215.1,69.25z"/>
		<path class="st2" d="M255.49,73.49l-2.81-9.91h-11.77l-2.81,9.91h-6.04l10.81-36.99h8.11l10.81,36.99H255.49z M247.01,42.48h-0.42
			l-4.56,16.22h9.54L247.01,42.48z"/>
		<path class="st2" d="M267.15,36.49h11.02c4.73,0,8.24,1.57,10.52,4.72c2.28,3.15,3.42,7.74,3.42,13.78s-1.14,10.64-3.42,13.78
			c-2.28,3.15-5.79,4.72-10.52,4.72h-11.02V36.49z M277.8,68.61c2.72,0,4.74-0.91,6.07-2.73c1.33-1.82,1.99-4.43,1.99-7.82v-6.15
			c0-3.39-0.66-6-1.99-7.82c-1.32-1.82-3.35-2.73-6.07-2.73h-4.77v27.24H277.8z"/>
	</g>
	<polygon class="st24" points="469,5.5 469,64.5 422,111.5 9,111.5 9,52.5 56,5.5 	"/>
</g>
</svg>
