<?xml version="1.0" encoding="utf-8"?>
<!-- Generator: Adobe Illustrator 26.3.1, SVG Export Plug-In . SVG Version: 6.00 Build 0)  -->
<svg version="1.1" xmlns="http://www.w3.org/2000/svg" xmlns:xlink="http://www.w3.org/1999/xlink" x="0px" y="0px"
	 viewBox="0 0 478 117" style="enable-background:new 0 0 478 117;" xml:space="preserve">
<style type="text/css">
	.st0{display:none;}
	.st1{display:inline;}
	.st2{fill:#2EF2DF;}
	
		.st3{opacity:0.7;fill:none;stroke:#45C9B3;stroke-linecap:round;stroke-linejoin:round;stroke-miterlimit:10;enable-background:new    ;}
	.st4{opacity:0.12;}
	.st5{fill:#00FCE5;}
	.st6{fill:#00CCB1;}
	.st7{fill:#F351F9;}
	.st8{fill:#00F6DE;}
	.st9{opacity:0.53;}
</style>
<g id="Layer_1" class="st0">
	<g id="BG" class="st1">
	</g>
	<g id="pal" class="st1">
	</g>
	<g id="Layer_2_00000157286165228819780020000007997981118404204445_" class="st1">
	</g>
	<g id="text" class="st1">
		<g>
			<path class="st2" d="M158.64,76.66c-3.64,0-6.7-0.63-9.18-1.9c-2.48-1.27-4.52-2.95-6.12-5.06l4.32-4.14
				c1.6,1.92,3.3,3.33,5.1,4.23s3.84,1.35,6.12,1.35c2.64,0,4.67-0.6,6.09-1.81s2.13-2.94,2.13-5.2c0-1.81-0.52-3.21-1.56-4.2
				s-2.82-1.7-5.34-2.15l-4.56-0.72c-2-0.32-3.68-0.85-5.04-1.59s-2.46-1.62-3.3-2.64s-1.45-2.16-1.83-3.42s-0.57-2.59-0.57-3.99
				c0-3.95,1.28-6.96,3.84-9.02s6.08-3.09,10.56-3.09c3.32,0,6.15,0.52,8.49,1.57c2.34,1.05,4.23,2.52,5.67,4.43l-4.2,4.2
				c-1.16-1.4-2.53-2.53-4.11-3.39s-3.53-1.29-5.85-1.29c-2.48,0-4.37,0.53-5.67,1.6s-1.95,2.63-1.95,4.68
				c0,1.73,0.51,3.09,1.53,4.08s2.83,1.7,5.43,2.15l4.44,0.78c3.76,0.68,6.5,2.05,8.22,4.11s2.58,4.56,2.58,7.52
				c0,1.92-0.33,3.68-0.99,5.27c-0.66,1.6-1.64,2.96-2.94,4.08s-2.9,1.99-4.8,2.61C163.25,76.35,161.08,76.66,158.64,76.66z"/>
			<path class="st2" d="M198.36,39.7v36.24h-6.72V39.7H178.5v-5.64h33v5.64H198.36z"/>
			<path class="st2" d="M240.72,75.94l-3.18-11.22h-13.32l-3.18,11.22h-6.84l12.24-41.88h9.18l12.24,41.88H240.72z M231.12,40.84
				h-0.48l-5.16,18.36h10.8L231.12,40.84z"/>
			<path class="st2" d="M260.7,75.94h-6.66V34.06h15.66c4,0,7.05,1.12,9.15,3.35s3.15,5.31,3.15,9.22c0,3.19-0.78,5.83-2.34,7.9
				c-1.56,2.08-3.8,3.35-6.72,3.83l9.66,17.57h-7.44l-8.88-16.98h-5.58V75.94z M268.74,53.62c4.16,0,6.24-1.91,6.24-5.72v-2.6
				c0-3.82-2.08-5.72-6.24-5.72h-8.04v14.04H268.74z"/>
			<path class="st2" d="M306.36,39.7v36.24h-6.72V39.7H286.5v-5.64h33v5.64H306.36z"/>
		</g>
		<polygon class="st3" points="469,5.5 469,64.5 422,111.5 9,111.5 9,52.5 56,5.5 		"/>
	</g>
</g>
<g id="Layer_2">
	<g class="st4">
		<g>
			<polygon class="st5" points="9.84,111.62 9.84,53.35 56.53,6.66 468.66,6.66 468.66,64.93 421.97,111.62 			"/>
		</g>
		<g>
			<path class="st6" d="M468.16,7.16v57.56l-46.4,46.4H10.34V53.56l46.4-46.4H468.16 M469.16,6.16H56.32L9.34,53.14v58.98h412.83
				l46.98-46.98V6.16L469.16,6.16z"/>
		</g>
	</g>
	<g>
		<g>
			<path class="st7" d="M158.9,76.28c-3.64,0-6.7-0.63-9.18-1.9c-2.48-1.27-4.52-2.95-6.12-5.06l4.32-4.14
				c1.6,1.92,3.3,3.33,5.1,4.23c1.8,0.9,3.84,1.35,6.12,1.35c2.64,0,4.67-0.6,6.09-1.81c1.42-1.21,2.13-2.94,2.13-5.2
				c0-1.81-0.52-3.21-1.56-4.2c-1.04-0.99-2.82-1.7-5.34-2.15l-4.56-0.72c-2-0.32-3.68-0.85-5.04-1.59
				c-1.36-0.74-2.46-1.62-3.3-2.64c-0.84-1.02-1.45-2.16-1.83-3.42c-0.38-1.26-0.57-2.59-0.57-3.99c0-3.95,1.28-6.96,3.84-9.02
				c2.56-2.06,6.08-3.09,10.56-3.09c3.32,0,6.15,0.52,8.49,1.57c2.34,1.05,4.23,2.52,5.67,4.43l-4.2,4.2
				c-1.16-1.4-2.53-2.53-4.11-3.39c-1.58-0.86-3.53-1.29-5.85-1.29c-2.48,0-4.37,0.53-5.67,1.6c-1.3,1.07-1.95,2.63-1.95,4.68
				c0,1.73,0.51,3.09,1.53,4.08s2.83,1.7,5.43,2.15l4.44,0.78c3.76,0.68,6.5,2.05,8.22,4.11c1.72,2.06,2.58,4.56,2.58,7.52
				c0,1.92-0.33,3.68-0.99,5.27c-0.66,1.6-1.64,2.96-2.94,4.08c-1.3,1.12-2.9,1.99-4.8,2.61C163.5,75.97,161.33,76.28,158.9,76.28z"
				/>
			<path class="st7" d="M198.61,39.32v36.24h-6.72V39.32h-13.14v-5.64h33v5.64H198.61z"/>
			<path class="st7" d="M240.97,75.56l-3.18-11.22h-13.32l-3.18,11.22h-6.84l12.24-41.88h9.18l12.24,41.88H240.97z M231.37,40.46
				h-0.48l-5.16,18.36h10.8L231.37,40.46z"/>
			<path class="st7" d="M260.95,75.56h-6.66V33.68h15.66c4,0,7.05,1.12,9.15,3.35c2.1,2.23,3.15,5.31,3.15,9.22
				c0,3.19-0.78,5.83-2.34,7.9c-1.56,2.08-3.8,3.35-6.72,3.83l9.66,17.57h-7.44l-8.88-16.98h-5.58V75.56z M268.99,53.24
				c4.16,0,6.24-1.91,6.24-5.72v-2.59c0-3.82-2.08-5.72-6.24-5.72h-8.04v14.04H268.99z"/>
			<path class="st7" d="M306.61,39.32v36.24h-6.72V39.32h-13.14v-5.64h33v5.64H306.61z"/>
		</g>
	</g>
	<g>
		<polygon class="st8" points="469.16,75.63 469.16,112.12 432.67,112.12 		"/>
		<path class="st8" d="M469.66,112.62h-38.19l38.19-38.19V112.62z M433.88,111.62h34.78V76.84L433.88,111.62z"/>
	</g>
	<g>
		<polygon class="st8" points="9.84,43.15 9.84,6.66 46.33,6.66 		"/>
		<path class="st8" d="M9.34,44.35V6.16h38.19L9.34,44.35z M10.34,7.16v34.78L45.12,7.16H10.34z"/>
	</g>
	<g class="st9">
		<g>
			<path class="st5" d="M468.16,6.52v57.56l-46.4,46.4H10.34V52.92l46.4-46.4H468.16 M469.16,5.52H56.32L9.34,52.5v58.98h412.83
				l46.98-46.98V5.52L469.16,5.52z"/>
		</g>
	</g>
</g>
</svg>
