<?xml version="1.0" encoding="utf-8"?>
<!-- Generator: Adobe Illustrator 26.3.1, SVG Export Plug-In . SVG Version: 6.00 Build 0)  -->
<svg version="1.1" xmlns="http://www.w3.org/2000/svg" xmlns:xlink="http://www.w3.org/1999/xlink" x="0px" y="0px"
	 viewBox="0 0 478 117" style="enable-background:new 0 0 478 117;" xml:space="preserve">
<style type="text/css">
	.st0{display:none;}
	.st1{display:inline;}
	.st2{fill:#2EF2DF;}
	
		.st3{opacity:0.7;fill:none;stroke:#45C9B3;stroke-linecap:round;stroke-linejoin:round;stroke-miterlimit:10;enable-background:new    ;}
	.st4{opacity:0.12;}
	.st5{fill:#00FCE5;}
	.st6{fill:#00CCB1;}
	.st7{fill:#F351F9;}
	.st8{fill:#00F6DE;}
	.st9{opacity:0.53;}
</style>
<g id="Layer_1" class="st0">
	<g id="BG" class="st1">
	</g>
	<g id="pal" class="st1">
	</g>
	<g id="Layer_2_00000111912800957643607330000005857692926567728561_" class="st1">
	</g>
	<g id="text" class="st1">
		<g>
			<path class="st2" d="M194.22,82.76h-6.78c-2.4,0-4.13-0.63-5.19-1.88s-1.59-2.91-1.59-4.96v-2.01c-1.87-0.32-3.5-0.97-4.88-1.96
				s-2.52-2.29-3.42-3.9s-1.56-3.51-1.99-5.7c-0.42-2.19-0.64-4.65-0.64-7.37c0-3,0.26-5.7,0.79-8.08s1.35-4.39,2.46-6.02
				c1.11-1.62,2.53-2.87,4.24-3.74c1.71-0.87,3.74-1.3,6.07-1.3s4.35,0.43,6.07,1.3c1.71,0.87,3.13,2.11,4.24,3.74
				s1.93,3.63,2.46,6.02c0.53,2.39,0.79,5.08,0.79,8.08c0,5.44-0.88,9.81-2.65,13.09c-1.77,3.29-4.52,5.23-8.27,5.83v4.4h8.27v4.46
				H194.22z M183.3,69.19c2.65,0,4.52-1,5.62-3c1.09-2,1.64-4.72,1.64-8.15v-6.21c0-3.4-0.55-6.1-1.64-8.1c-1.1-2-2.97-3-5.62-3
				s-4.52,1-5.62,3c-1.1,2-1.64,4.7-1.64,8.1v6.27c0,3.4,0.55,6.1,1.64,8.1C178.78,68.19,180.65,69.19,183.3,69.19z"/>
			<path class="st2" d="M208.79,36.49v22.77c0,1.52,0.04,2.9,0.13,4.14c0.09,1.24,0.34,2.29,0.77,3.16
				c0.42,0.87,1.06,1.53,1.91,1.99s2.01,0.69,3.5,0.69c1.48,0,2.65-0.23,3.5-0.69s1.48-1.12,1.91-1.99
				c0.42-0.87,0.68-1.92,0.77-3.16c0.09-1.24,0.13-2.62,0.13-4.14V36.49h5.94v21.68c0,2.65-0.15,4.97-0.45,6.97
				c-0.3,2-0.89,3.66-1.78,4.98c-0.88,1.33-2.13,2.32-3.74,2.99s-3.7,1.01-6.28,1.01s-4.67-0.34-6.28-1.01
				c-1.61-0.67-2.85-1.67-3.74-2.99c-0.88-1.32-1.48-2.99-1.78-4.98c-0.3-2-0.45-4.32-0.45-6.97V36.49H208.79z"/>
			<path class="st2" d="M235.24,73.49v-4.5h8.69V41h-8.69v-4.51h23.32V41h-8.69v27.98h8.69v4.5h-23.32V73.49z"/>
			<path class="st2" d="M281.67,41.48v32.01h-5.94V41.48h-11.61V36.5h29.15v4.98H281.67z"/>
		</g>
		<polygon class="st3" points="469,5.5 469,64.5 422,111.5 9,111.5 9,52.5 56,5.5 		"/>
	</g>
</g>
<g id="Layer_2">
	<g class="st4">
		<g>
			<polygon class="st5" points="9.84,111.94 9.84,53.67 56.53,6.98 468.66,6.98 468.66,65.25 421.97,111.94 			"/>
		</g>
		<g>
			<path class="st6" d="M468.16,7.48v57.56l-46.4,46.4H10.34V53.88l46.4-46.4H468.16 M469.16,6.48H56.32L9.34,53.46v58.98h412.83
				l46.98-46.98V6.48L469.16,6.48z"/>
		</g>
	</g>
	<g>
		<g>
			<path class="st7" d="M194.47,82.97h-6.78c-2.4,0-4.13-0.63-5.19-1.88c-1.06-1.26-1.59-2.91-1.59-4.96v-2.01
				c-1.87-0.32-3.5-0.97-4.88-1.96c-1.38-0.99-2.52-2.29-3.42-3.89s-1.56-3.51-1.99-5.7c-0.42-2.19-0.64-4.65-0.64-7.37
				c0-3,0.27-5.7,0.79-8.08c0.53-2.38,1.35-4.39,2.46-6.02c1.11-1.62,2.53-2.87,4.24-3.74c1.71-0.87,3.74-1.3,6.07-1.3
				s4.35,0.43,6.07,1.3c1.71,0.87,3.13,2.11,4.24,3.74c1.11,1.63,1.93,3.63,2.46,6.02c0.53,2.39,0.79,5.08,0.79,8.08
				c0,5.44-0.88,9.81-2.65,13.09c-1.77,3.29-4.52,5.23-8.27,5.83v4.4h8.27V82.97z M183.55,69.4c2.65,0,4.52-1,5.62-3
				c1.09-2,1.64-4.72,1.64-8.15v-6.21c0-3.4-0.55-6.1-1.64-8.1c-1.1-2-2.97-3-5.62-3s-4.52,1-5.62,3c-1.1,2-1.64,4.7-1.64,8.1v6.27
				c0,3.4,0.55,6.1,1.64,8.1C179.03,68.4,180.9,69.4,183.55,69.4z"/>
			<path class="st7" d="M209.05,36.7v22.77c0,1.52,0.04,2.9,0.13,4.14c0.09,1.24,0.34,2.29,0.77,3.16c0.42,0.87,1.06,1.53,1.91,1.99
				c0.85,0.46,2.01,0.69,3.5,0.69s2.65-0.23,3.5-0.69c0.85-0.46,1.48-1.12,1.91-1.99c0.42-0.87,0.68-1.92,0.77-3.16
				c0.09-1.24,0.13-2.62,0.13-4.14V36.7h5.94v21.68c0,2.65-0.15,4.97-0.45,6.97c-0.3,2-0.89,3.66-1.78,4.98
				c-0.88,1.33-2.13,2.32-3.74,2.99c-1.61,0.67-3.7,1.01-6.28,1.01c-2.58,0-4.67-0.34-6.28-1.01c-1.61-0.67-2.85-1.67-3.74-2.99
				c-0.88-1.32-1.48-2.99-1.78-4.98c-0.3-2-0.45-4.32-0.45-6.97V36.7H209.05z"/>
			<path class="st7" d="M235.49,73.7v-4.5h8.69V41.21h-8.69V36.7h23.32v4.51h-8.69v27.98h8.69v4.5H235.49z"/>
			<path class="st7" d="M281.92,41.68V73.7h-5.94V41.68h-11.61V36.7h29.15v4.98H281.92z"/>
		</g>
	</g>
	<g>
		<polygon class="st8" points="469.16,75.95 469.16,112.44 432.67,112.44 		"/>
		<path class="st8" d="M469.66,112.94h-38.19l38.19-38.19V112.94z M433.88,111.94h34.78V77.16L433.88,111.94z"/>
	</g>
	<g>
		<polygon class="st8" points="9.84,43.47 9.84,6.98 46.33,6.98 		"/>
		<path class="st8" d="M9.34,44.67V6.48h38.19L9.34,44.67z M10.34,7.48v34.78L45.12,7.48H10.34z"/>
	</g>
	<g class="st9">
		<g>
			<path class="st5" d="M468.16,6.84V64.4l-46.4,46.4H10.34V53.24l46.4-46.4H468.16 M469.16,5.84H56.32L9.34,52.82v58.98h412.83
				l46.98-46.98V5.84L469.16,5.84z"/>
		</g>
	</g>
</g>
</svg>
