<?xml version="1.0" encoding="utf-8"?>
<!-- Generator: Adobe Illustrator 26.3.1, SVG Export Plug-In . SVG Version: 6.00 Build 0)  -->
<svg version="1.1" xmlns="http://www.w3.org/2000/svg" xmlns:xlink="http://www.w3.org/1999/xlink" x="0px" y="0px"
	 viewBox="0 0 478 117" style="enable-background:new 0 0 478 117;" xml:space="preserve">
<style type="text/css">
	.st0{display:none;}
	.st1{display:inline;}
	.st2{fill:#2EF2DF;}
	
		.st3{opacity:0.7;fill:none;stroke:#45C9B3;stroke-linecap:round;stroke-linejoin:round;stroke-miterlimit:10;enable-background:new    ;}
	.st4{opacity:0.12;}
	.st5{fill:#00FCE5;}
	.st6{fill:#00CCB1;}
	.st7{fill:#F351F9;}
	.st8{fill:#00F6DE;}
	.st9{opacity:0.53;}
</style>
<g id="Layer_1" class="st0">
	<g id="BG" class="st1">
	</g>
	<g id="pal" class="st1">
	</g>
	<g id="Layer_2_00000163789905641369560870000010408252909964743859_" class="st1">
	</g>
	<g id="text" class="st1">
		<g>
			<path class="st2" d="M173.12,73.49v-37h5.94V68.5h16.85v4.98L173.12,73.49L173.12,73.49z"/>
			<path class="st2" d="M215.1,74.12c-2.33,0-4.36-0.43-6.07-1.3s-3.13-2.11-4.24-3.74c-1.11-1.62-1.93-3.62-2.46-5.99
				c-0.53-2.37-0.79-5.07-0.79-8.11c0-3,0.27-5.7,0.79-8.08c0.53-2.38,1.35-4.39,2.46-6.02c1.11-1.62,2.53-2.87,4.24-3.74
				c1.71-0.87,3.74-1.3,6.07-1.3s4.35,0.43,6.07,1.3c1.71,0.87,3.13,2.11,4.24,3.74s1.93,3.63,2.46,6.02
				c0.53,2.39,0.79,5.08,0.79,8.08c0,3.04-0.26,5.74-0.79,8.11s-1.35,4.36-2.46,5.99s-2.53,2.87-4.24,3.74
				C219.46,73.69,217.43,74.12,215.1,74.12z M215.1,69.25c2.65,0,4.52-1,5.62-3c1.09-2,1.64-4.73,1.64-8.17v-6.22
				c0-3.4-0.55-6.11-1.64-8.11c-1.1-2-2.97-3.01-5.62-3.01s-4.52,1-5.62,3.01c-1.1,2-1.64,4.71-1.64,8.11v6.28
				c0,3.41,0.55,6.11,1.64,8.11C210.58,68.25,212.45,69.25,215.1,69.25z"/>
			<path class="st2" d="M255.49,73.49l-2.81-9.91h-11.77l-2.81,9.91h-6.04l10.81-36.99h8.11l10.81,36.99H255.49z M247.01,42.48
				h-0.42l-4.56,16.22h9.54L247.01,42.48z"/>
			<path class="st2" d="M267.15,36.49h11.02c4.73,0,8.24,1.57,10.52,4.72s3.42,7.74,3.42,13.78s-1.14,10.64-3.42,13.78
				c-2.28,3.15-5.79,4.72-10.52,4.72h-11.02V36.49z M277.8,68.61c2.72,0,4.74-0.91,6.07-2.73c1.33-1.82,1.99-4.43,1.99-7.82v-6.15
				c0-3.39-0.66-6-1.99-7.82c-1.32-1.82-3.35-2.73-6.07-2.73h-4.77V68.6h4.77V68.61z"/>
		</g>
		<polygon class="st3" points="469,5.5 469,64.5 422,111.5 9,111.5 9,52.5 56,5.5 		"/>
	</g>
</g>
<g id="Layer_2">
	<g class="st4">
		<g>
			<polygon class="st5" points="9.84,111.94 9.84,53.67 56.53,6.98 468.66,6.98 468.66,65.25 421.97,111.94 			"/>
		</g>
		<g>
			<path class="st6" d="M468.16,7.48v57.56l-46.4,46.4H10.34V53.88l46.4-46.4H468.16 M469.16,6.48H56.32L9.34,53.46v58.98h412.83
				l46.98-46.98V6.48L469.16,6.48z"/>
		</g>
	</g>
	<g>
		<g>
			<path class="st7" d="M173.38,73.7V36.7h5.94v32.01h16.85v4.98H173.38z"/>
			<path class="st7" d="M215.35,74.33c-2.33,0-4.35-0.43-6.07-1.3c-1.71-0.87-3.13-2.11-4.24-3.74c-1.11-1.62-1.93-3.62-2.46-5.99
				c-0.53-2.37-0.79-5.07-0.79-8.11c0-3,0.27-5.7,0.79-8.08c0.53-2.38,1.35-4.39,2.46-6.02c1.11-1.62,2.53-2.87,4.24-3.74
				c1.71-0.87,3.74-1.3,6.07-1.3s4.35,0.43,6.07,1.3c1.71,0.87,3.13,2.11,4.24,3.74c1.11,1.63,1.93,3.63,2.46,6.02
				c0.53,2.39,0.79,5.08,0.79,8.08c0,3.04-0.26,5.74-0.79,8.11c-0.53,2.37-1.35,4.36-2.46,5.99s-2.53,2.87-4.24,3.74
				S217.69,74.33,215.35,74.33z M215.35,69.46c2.65,0,4.52-1,5.62-3c1.09-2,1.64-4.73,1.64-8.17v-6.22c0-3.4-0.55-6.11-1.64-8.11
				c-1.1-2-2.97-3.01-5.62-3.01s-4.52,1-5.62,3.01c-1.1,2-1.64,4.71-1.64,8.11v6.28c0,3.4,0.55,6.11,1.64,8.11
				C210.83,68.46,212.7,69.46,215.35,69.46z"/>
			<path class="st7" d="M255.74,73.7l-2.81-9.91h-11.77l-2.81,9.91h-6.04l10.81-36.99h8.11l10.81,36.99H255.74z M247.26,42.69h-0.42
				l-4.56,16.22h9.54L247.26,42.69z"/>
			<path class="st7" d="M267.4,36.7h11.02c4.73,0,8.24,1.57,10.52,4.72c2.28,3.15,3.42,7.74,3.42,13.78
				c0,6.04-1.14,10.64-3.42,13.78c-2.28,3.15-5.79,4.72-10.52,4.72H267.4V36.7z M278.05,68.82c2.72,0,4.74-0.91,6.07-2.73
				c1.33-1.82,1.99-4.42,1.99-7.82v-6.15c0-3.39-0.66-6-1.99-7.82c-1.33-1.82-3.35-2.73-6.07-2.73h-4.77v27.24H278.05z"/>
		</g>
	</g>
	<g>
		<polygon class="st8" points="469.16,75.95 469.16,112.44 432.67,112.44 		"/>
		<path class="st8" d="M469.66,112.94h-38.19l38.19-38.19V112.94z M433.88,111.94h34.78V77.16L433.88,111.94z"/>
	</g>
	<g>
		<polygon class="st8" points="9.84,43.47 9.84,6.98 46.33,6.98 		"/>
		<path class="st8" d="M9.34,44.67V6.48h38.19L9.34,44.67z M10.34,7.48v34.78L45.12,7.48H10.34z"/>
	</g>
	<g class="st9">
		<g>
			<path class="st5" d="M468.16,6.84V64.4l-46.4,46.4H10.34V53.24l46.4-46.4H468.16 M469.16,5.84H56.32L9.34,52.82v58.98h412.83
				l46.98-46.98V5.84L469.16,5.84z"/>
		</g>
	</g>
</g>
</svg>
