<?xml version="1.0" encoding="utf-8"?>
<!-- Generator: Adobe Illustrator 26.3.1, SVG Export Plug-In . SVG Version: 6.00 Build 0)  -->
<svg version="1.1" xmlns="http://www.w3.org/2000/svg" xmlns:xlink="http://www.w3.org/1999/xlink" x="0px" y="0px"
	 viewBox="0 0 478 117" style="enable-background:new 0 0 478 117;" xml:space="preserve">
<style type="text/css">
	.st0{display:none;}
	.st1{display:inline;}
	.st2{fill:#2EF2DF;}
	
		.st3{opacity:0.7;fill:none;stroke:#45C9B3;stroke-linecap:round;stroke-linejoin:round;stroke-miterlimit:10;enable-background:new    ;}
	.st4{opacity:0.12;}
	.st5{fill:#00FCE5;}
	.st6{fill:#00CCB1;}
	.st7{fill:#F351F9;}
	.st8{fill:#00F6DE;}
	.st9{opacity:0.53;}
</style>
<g id="Layer_1" class="st0">
	<g id="BG" class="st1">
	</g>
	<g id="pal" class="st1">
	</g>
	<g id="Layer_2_00000067205847342928750750000006441937148061319854_" class="st1">
	</g>
	<g id="text" class="st1">
		<g>
			<path class="st2" d="M119.38,74.12c-3.22,0-5.92-0.56-8.11-1.68s-3.99-2.61-5.41-4.47l3.82-3.66c1.41,1.7,2.92,2.94,4.51,3.74
				c1.59,0.79,3.39,1.19,5.41,1.19c2.33,0,4.12-0.53,5.38-1.6c1.25-1.07,1.88-2.6,1.88-4.59c0-1.6-0.46-2.84-1.38-3.71
				s-2.49-1.5-4.72-1.89l-4.03-0.64c-1.77-0.28-3.25-0.75-4.45-1.4s-2.17-1.43-2.92-2.33c-0.74-0.9-1.28-1.91-1.62-3.02
				c-0.34-1.11-0.5-2.29-0.5-3.52c0-3.49,1.13-6.15,3.39-7.97s5.37-2.73,9.33-2.73c2.93,0,5.43,0.46,7.5,1.39
				c2.07,0.93,3.74,2.23,5.01,3.91l-3.71,3.71c-1.02-1.24-2.23-2.23-3.63-2.99c-1.4-0.76-3.12-1.14-5.17-1.14
				c-2.19,0-3.86,0.47-5.01,1.41s-1.72,2.32-1.72,4.14c0,1.53,0.45,2.73,1.35,3.6s2.5,1.5,4.8,1.9l3.92,0.69
				c3.32,0.6,5.74,1.81,7.26,3.63s2.28,4.03,2.28,6.64c0,1.69-0.29,3.25-0.87,4.66s-1.45,2.61-2.6,3.6s-2.56,1.76-4.24,2.3
				C123.46,73.85,121.54,74.12,119.38,74.12z"/>
			<path class="st2" d="M140.16,73.49v-37h23.16v4.98H146.1v10.76h16.59v4.98H146.1V68.5h17.22v4.98L140.16,73.49L140.16,73.49z"/>
			<path class="st2" d="M186.27,41.48v32.01h-5.94V41.48h-11.61V36.5h29.15v4.98H186.27z"/>
			<path class="st2" d="M218.07,41.48v32.01h-5.94V41.48h-11.61V36.5h29.15v4.98H218.07z"/>
			<path class="st2" d="M235.24,73.49v-4.5h8.69V41h-8.69v-4.51h23.32V41h-8.69v27.98h8.69v4.5h-23.32V73.49z"/>
			<path class="st2" d="M272.29,45.03h-0.48v28.46h-5.19v-37h7.63l10.86,28.46h0.48V36.49h5.19v36.99h-7.63L272.29,45.03z"/>
			<path class="st2" d="M317.39,68.4h-0.37c-0.32,0.74-0.7,1.46-1.14,2.15s-0.99,1.3-1.64,1.83c-0.65,0.53-1.44,0.95-2.36,1.27
				c-0.92,0.32-1.98,0.48-3.18,0.48c-3.85,0-6.75-1.64-8.69-4.93s-2.92-7.93-2.92-13.94c0-6.29,1.11-11.09,3.34-14.42
				c2.23-3.32,5.64-4.98,10.23-4.98c1.8,0,3.38,0.25,4.74,0.73c1.36,0.49,2.52,1.14,3.47,1.97c0.95,0.82,1.75,1.79,2.38,2.9
				c0.64,1.11,1.15,2.28,1.54,3.52l-5.35,1.8c-0.28-0.81-0.6-1.58-0.95-2.31c-0.35-0.72-0.79-1.37-1.3-1.93
				c-0.51-0.56-1.13-1.01-1.86-1.32c-0.72-0.32-1.6-0.48-2.62-0.48c-2.58,0-4.44,1-5.59,3s-1.72,4.7-1.72,8.1v5.89
				c0,1.7,0.12,3.26,0.37,4.67s0.66,2.63,1.25,3.64c0.58,1.01,1.34,1.8,2.28,2.36s2.08,0.85,3.42,0.85c2.15,0,3.81-0.64,4.96-1.93
				s1.72-2.94,1.72-4.96v-3.34h-7.16v-4.45h12.56v18.92h-5.41V68.4z"/>
			<path class="st2" d="M341.98,74.12c-3.22,0-5.92-0.56-8.11-1.68c-2.19-1.12-3.99-2.61-5.41-4.47l3.82-3.66
				c1.41,1.7,2.92,2.94,4.5,3.74s3.39,1.19,5.41,1.19c2.33,0,4.12-0.53,5.38-1.6c1.25-1.07,1.88-2.6,1.88-4.59
				c0-1.6-0.46-2.84-1.38-3.71s-2.49-1.5-4.72-1.89l-4.03-0.64c-1.77-0.28-3.25-0.75-4.45-1.4s-2.17-1.43-2.92-2.33
				c-0.74-0.9-1.28-1.91-1.62-3.02s-0.5-2.29-0.5-3.52c0-3.49,1.13-6.15,3.39-7.97s5.37-2.73,9.33-2.73c2.93,0,5.43,0.46,7.5,1.39
				s3.74,2.23,5.01,3.91l-3.71,3.71c-1.03-1.24-2.24-2.23-3.63-2.99s-3.12-1.14-5.17-1.14c-2.19,0-3.86,0.47-5.01,1.41
				c-1.15,0.94-1.72,2.32-1.72,4.14c0,1.53,0.45,2.73,1.35,3.6s2.5,1.5,4.8,1.9l3.92,0.69c3.32,0.6,5.74,1.81,7.26,3.63
				c1.52,1.82,2.28,4.03,2.28,6.64c0,1.69-0.29,3.25-0.88,4.66c-0.58,1.41-1.45,2.61-2.6,3.6s-2.56,1.76-4.24,2.3
				C346.05,73.85,344.13,74.12,341.98,74.12z"/>
		</g>
		<polygon class="st3" points="469,5.5 469,64.5 422,111.5 9,111.5 9,52.5 56,5.5 		"/>
	</g>
</g>
<g id="Layer_2">
	<g class="st4">
		<g>
			<polygon class="st5" points="9.84,111.94 9.84,53.67 56.53,6.98 468.66,6.98 468.66,65.25 421.97,111.94 			"/>
		</g>
		<g>
			<path class="st6" d="M468.16,7.48v57.56l-46.4,46.4H10.34V53.88l46.4-46.4H468.16 M469.16,6.48H56.32L9.34,53.46v58.98h412.83
				l46.98-46.98V6.48L469.16,6.48z"/>
		</g>
	</g>
	<g>
		<g>
			<path class="st7" d="M119.64,74.33c-3.22,0-5.92-0.56-8.11-1.68c-2.19-1.12-3.99-2.61-5.41-4.47l3.82-3.66
				c1.41,1.7,2.92,2.94,4.51,3.74c1.59,0.79,3.39,1.19,5.41,1.19c2.33,0,4.12-0.53,5.38-1.6c1.25-1.07,1.88-2.6,1.88-4.59
				c0-1.6-0.46-2.84-1.38-3.71c-0.92-0.87-2.49-1.5-4.72-1.89l-4.03-0.64c-1.77-0.28-3.25-0.75-4.45-1.4
				c-1.2-0.65-2.17-1.43-2.92-2.33c-0.74-0.9-1.28-1.91-1.62-3.02c-0.34-1.11-0.5-2.29-0.5-3.52c0-3.49,1.13-6.15,3.39-7.97
				c2.26-1.82,5.37-2.73,9.33-2.73c2.93,0,5.43,0.46,7.5,1.39c2.07,0.93,3.74,2.23,5.01,3.91l-3.71,3.71
				c-1.02-1.24-2.23-2.23-3.63-2.99c-1.4-0.76-3.12-1.14-5.17-1.14c-2.19,0-3.86,0.47-5.01,1.41c-1.15,0.94-1.72,2.32-1.72,4.14
				c0,1.53,0.45,2.73,1.35,3.6c0.9,0.87,2.5,1.5,4.8,1.9l3.92,0.69c3.32,0.6,5.74,1.81,7.26,3.63c1.52,1.82,2.28,4.03,2.28,6.64
				c0,1.69-0.29,3.25-0.87,4.66s-1.45,2.61-2.6,3.6c-1.15,0.99-2.56,1.76-4.24,2.3C123.71,74.06,121.79,74.33,119.64,74.33z"/>
			<path class="st7" d="M140.41,73.7V36.7h23.16v4.98h-17.23v10.76h16.59v4.98h-16.59v11.29h17.23v4.98H140.41z"/>
			<path class="st7" d="M186.52,41.68V73.7h-5.94V41.68h-11.61V36.7h29.15v4.98H186.52z"/>
			<path class="st7" d="M218.32,41.68V73.7h-5.94V41.68h-11.61V36.7h29.15v4.98H218.32z"/>
			<path class="st7" d="M235.49,73.7v-4.5h8.69V41.21h-8.69V36.7h23.32v4.51h-8.69v27.98h8.69v4.5H235.49z"/>
			<path class="st7" d="M272.54,45.24h-0.48V73.7h-5.19V36.7h7.63l10.87,28.46h0.48V36.7h5.19V73.7h-7.63L272.54,45.24z"/>
			<path class="st7" d="M317.64,68.61h-0.37c-0.32,0.74-0.7,1.46-1.14,2.15c-0.44,0.69-0.99,1.3-1.64,1.83
				c-0.65,0.53-1.44,0.95-2.36,1.27c-0.92,0.32-1.98,0.48-3.18,0.48c-3.85,0-6.75-1.64-8.69-4.93c-1.94-3.29-2.91-7.93-2.91-13.94
				c0-6.29,1.11-11.09,3.34-14.42c2.23-3.32,5.63-4.98,10.23-4.98c1.8,0,3.38,0.25,4.74,0.73c1.36,0.49,2.52,1.14,3.47,1.97
				c0.95,0.82,1.75,1.79,2.39,2.9c0.64,1.11,1.15,2.28,1.54,3.52l-5.35,1.8c-0.28-0.81-0.6-1.58-0.95-2.31
				c-0.35-0.72-0.79-1.37-1.3-1.93c-0.51-0.56-1.13-1.01-1.85-1.32c-0.72-0.32-1.6-0.48-2.62-0.48c-2.58,0-4.44,1-5.59,3
				c-1.15,2-1.72,4.7-1.72,8.1v5.89c0,1.7,0.12,3.26,0.37,4.67c0.25,1.42,0.66,2.63,1.25,3.64c0.58,1.01,1.34,1.79,2.28,2.36
				c0.94,0.57,2.08,0.85,3.42,0.85c2.16,0,3.81-0.64,4.96-1.93c1.15-1.29,1.72-2.94,1.72-4.96v-3.34h-7.16v-4.45h12.56V73.7h-5.41
				V68.61z"/>
			<path class="st7" d="M342.23,74.33c-3.22,0-5.92-0.56-8.11-1.68c-2.19-1.12-3.99-2.61-5.41-4.47l3.82-3.66
				c1.41,1.7,2.92,2.94,4.51,3.74c1.59,0.79,3.39,1.19,5.41,1.19c2.33,0,4.12-0.53,5.38-1.6c1.25-1.07,1.88-2.6,1.88-4.59
				c0-1.6-0.46-2.84-1.38-3.71c-0.92-0.87-2.49-1.5-4.72-1.89l-4.03-0.64c-1.77-0.28-3.25-0.75-4.45-1.4
				c-1.2-0.65-2.17-1.43-2.92-2.33c-0.74-0.9-1.28-1.91-1.62-3.02c-0.34-1.11-0.5-2.29-0.5-3.52c0-3.49,1.13-6.15,3.39-7.97
				c2.26-1.82,5.37-2.73,9.33-2.73c2.93,0,5.43,0.46,7.5,1.39c2.07,0.93,3.74,2.23,5.01,3.91l-3.71,3.71
				c-1.02-1.24-2.23-2.23-3.63-2.99c-1.4-0.76-3.12-1.14-5.17-1.14c-2.19,0-3.86,0.47-5.01,1.41c-1.15,0.94-1.72,2.32-1.72,4.14
				c0,1.53,0.45,2.73,1.35,3.6c0.9,0.87,2.5,1.5,4.8,1.9l3.92,0.69c3.32,0.6,5.74,1.81,7.26,3.63c1.52,1.82,2.28,4.03,2.28,6.64
				c0,1.69-0.29,3.25-0.87,4.66s-1.45,2.61-2.6,3.6s-2.56,1.76-4.24,2.3C346.3,74.06,344.39,74.33,342.23,74.33z"/>
		</g>
	</g>
	<g>
		<polygon class="st8" points="469.16,75.95 469.16,112.44 432.67,112.44 		"/>
		<path class="st8" d="M469.66,112.94h-38.19l38.19-38.19V112.94z M433.88,111.94h34.78V77.16L433.88,111.94z"/>
	</g>
	<g>
		<polygon class="st8" points="9.84,43.47 9.84,6.98 46.33,6.98 		"/>
		<path class="st8" d="M9.34,44.67V6.48h38.19L9.34,44.67z M10.34,7.48v34.78L45.12,7.48H10.34z"/>
	</g>
	<g class="st9">
		<g>
			<path class="st5" d="M468.16,6.84V64.4l-46.4,46.4H10.34V53.24l46.4-46.4H468.16 M469.16,5.84H56.32L9.34,52.82v58.98h412.83
				l46.98-46.98V5.84L469.16,5.84z"/>
		</g>
	</g>
</g>
</svg>
